<svg width="112" height="40" viewBox="0 0 112 40" fill="none" xmlns="http://www.w3.org/2000/svg">
<path fill-rule="evenodd" clip-rule="evenodd" d="M57.3668 12.3442L62.6533 12.0024C62.7739 12.8668 62.995 13.51 63.3568 13.9723C63.9397 14.6959 64.7437 15.0577 65.809 15.0577C66.593 15.0577 67.2161 14.8768 67.6382 14.4949C68.0402 14.1934 68.2814 13.711 68.2814 13.2085C68.2814 12.7261 68.0603 12.2637 67.6784 11.9622C67.2764 11.6004 66.3317 11.2386 64.8442 10.917C62.4121 10.3743 60.6633 9.65068 59.6382 8.72606C58.6131 7.86174 58.0301 6.59541 58.0703 5.24867C58.0703 4.32405 58.3517 3.39943 58.8744 2.63561C59.4774 1.77129 60.3015 1.08787 61.2864 0.705959C62.3518 0.243648 63.8392 0.00244141 65.7085 0.00244141C68 0.00244141 69.7487 0.424552 70.9548 1.28887C72.1608 2.1331 72.8844 3.49993 73.1055 5.36928L67.8794 5.67078C67.7387 4.86676 67.4573 4.28385 66.995 3.90194C66.5327 3.52003 65.9296 3.33913 65.1457 3.33913C64.5025 3.33913 64.0201 3.47983 63.6985 3.74114C63.397 3.98234 63.196 4.34415 63.2161 4.74616C63.2161 5.04767 63.3769 5.32907 63.6181 5.50998C63.8794 5.75118 64.5025 5.97229 65.4874 6.1733C67.9196 6.69591 69.6482 7.21852 70.7136 7.76124C71.7789 8.30395 72.5427 8.96727 73.005 9.75119C73.0458 9.81922 73.0849 9.88811 73.1223 9.95781C74.0678 7.61317 75.7342 5.40102 78.0152 3.68211C83.7162 -0.614099 91.3212 -0.370262 94.9577 4.45541C98.5942 9.28107 96.7327 16.6587 91.0316 20.9549C90.7784 21.1457 90.5215 21.3275 90.2613 21.5004C92.249 21.8022 93.8498 22.5558 95.0553 23.7613C95.8659 24.5719 96.4774 25.5461 96.8844 26.6837V21.6708H102.452V35.2185H111.116V39.6406H96.8844V34.605C96.7518 34.9866 96.5976 35.345 96.4221 35.6809C95.7387 37.0075 94.6734 38.0929 93.3668 38.8165C92.0201 39.5602 90.3518 39.9422 88.3618 39.9422C86.3316 39.9422 84.6633 39.6205 83.3367 38.9773C81.9698 38.2939 80.8442 37.2286 80.1005 35.9221C79.2764 34.515 78.8543 32.7663 78.8543 30.6557C78.8543 27.8076 79.6305 25.5653 81.1646 23.9472C78.3404 23.6843 75.7838 22.4305 74.0891 20.1816C73.1715 18.9639 72.6039 17.5837 72.3598 16.1315C71.7416 16.8712 70.96 17.4527 70.0704 17.8316C68.9246 18.3341 67.4774 18.5954 65.7487 18.5954C62.6935 18.5954 60.5829 18.0125 59.397 16.8266C58.2111 15.6406 57.5075 14.1532 57.3668 12.3442ZM1.26633 18.2738V0.32405H10.5327C12.2412 0.32405 13.5678 0.464753 14.4724 0.76626C15.3568 1.04767 16.1407 1.63058 16.6633 2.4145C17.2462 3.27882 17.5276 4.28385 17.5075 5.32908C17.5678 7.09792 16.6633 8.78636 15.1156 9.67078C14.5126 10.0125 13.8492 10.2537 13.1658 10.3743C13.6683 10.515 14.1709 10.7562 14.6131 11.0376C14.9548 11.319 15.2362 11.6406 15.4975 11.9823C15.799 12.324 16.0603 12.706 16.2814 13.108L18.9749 18.314H12.6633L9.68844 12.7864C9.30653 12.0828 8.98492 11.6205 8.68342 11.3994C8.28141 11.118 7.799 10.9773 7.31658 10.9773H6.83417V18.2738H1.26633ZM6.83417 7.60043H9.18593C9.68844 7.56023 10.1709 7.47983 10.6533 7.35923C11.0151 7.29892 11.3367 7.09792 11.5578 6.79641C12.1005 6.07279 12.0201 5.04767 11.3568 4.42455C10.995 4.12304 10.2915 3.96224 9.28643 3.96224H6.83417V7.60043ZM0 33.6909L5.28643 33.3492C5.40703 34.2135 5.62814 34.8567 5.98995 35.319C6.55276 36.0426 7.37688 36.4246 8.44221 36.4246C9.22613 36.4246 9.84925 36.2436 10.2714 35.8617C10.6734 35.5401 10.9146 35.0778 10.9146 34.5753C10.9146 34.0929 10.6935 33.6306 10.3116 33.3291C9.90955 32.9673 8.96482 32.6055 7.45729 32.2838C5.02513 31.7411 3.27638 31.0175 2.25126 30.0929C1.22613 29.2286 0.643216 27.9622 0.683417 26.6155C0.683417 25.6909 0.964824 24.7663 1.48744 24.0024C2.09045 23.1381 2.91457 22.4547 3.8995 22.0728C4.96482 21.6105 6.45226 21.3693 8.32161 21.3693C10.6131 21.3693 12.3618 21.7914 13.5678 22.6557C14.4141 23.2622 15.0129 24.1062 15.3713 25.2015C15.6833 24.6704 16.0535 24.1902 16.4824 23.7612C18.0704 22.1733 20.3015 21.3693 23.196 21.3693C25.4673 21.3693 27.2362 21.8316 28.5427 22.7361C29.8291 23.6607 30.794 25.0678 31.4372 26.9572L26.5327 28.0427C26.4121 27.6205 26.2312 27.1984 25.99 26.8366C25.6884 26.4145 25.3065 26.0929 24.8442 25.8517C24.3819 25.6105 23.8593 25.51 23.3367 25.51C22.0704 25.51 21.1055 26.0125 20.4422 27.0376C19.9397 27.7813 19.6784 28.9673 19.6784 30.5753C19.6784 32.5653 19.9799 33.9321 20.5829 34.6758C21.1859 35.4195 22.0302 35.7813 23.1357 35.7813C24.201 35.7813 25.005 35.4798 25.5477 34.8969C26.0905 34.2738 26.4925 33.4095 26.7337 32.2839L31.598 33.7512C31.3367 34.9773 30.794 36.1432 30.0503 37.1683C29.3668 38.0728 28.4623 38.7763 27.4372 39.2386C26.392 39.7009 25.0653 39.9422 23.4573 39.9422C21.5075 39.9422 19.8995 39.6607 18.6734 39.0979C17.5271 38.5803 16.5339 37.6885 15.6781 36.4382C15.5812 36.6263 15.474 36.8097 15.3568 36.9874C14.6935 37.9723 13.7688 38.7361 12.6834 39.1984C11.5377 39.7009 10.0905 39.9622 8.36181 39.9622C5.30653 39.9622 3.19598 39.3793 2.01005 38.1934C0.824121 36.9874 0.160804 35.4999 0 33.6909ZM10.4724 27.0376L14.658 26.7961C14.3758 27.6549 14.2032 28.6094 14.1391 29.6584C13.8857 29.4853 13.6082 29.322 13.3065 29.1683C12.2412 28.6256 10.5126 28.1029 8.0804 27.5803C7.09548 27.3793 6.47236 27.1582 6.21105 26.917C5.96985 26.7361 5.80904 26.4547 5.80904 26.1532C5.78894 25.7512 5.96985 25.3894 6.29146 25.1482C6.61306 24.8668 7.09548 24.7261 7.73869 24.7261C8.52261 24.706 9.14573 24.8869 9.58794 25.2688C10.0503 25.6507 10.3317 26.2336 10.4724 27.0376ZM43.6382 21.6708H38.0905V39.6406H43.6382V32.3643H49.7085V39.6406H55.2965V34.9506C55.438 35.2909 55.5988 35.6146 55.7789 35.9221C56.5226 37.2286 57.6482 38.2939 59.0151 38.9773C60.3417 39.6205 62.01 39.9422 64.0402 39.9422C66.0301 39.9422 67.6985 39.5602 69.0452 38.8165C70.3518 38.0929 71.4171 37.0075 72.1005 35.6809C72.804 34.3341 73.1658 32.6256 73.1658 30.515C73.1658 27.6205 72.3618 25.3693 70.7337 23.7613C69.1055 22.1532 66.8141 21.3492 63.8191 21.3492C60.9045 21.3492 58.6131 22.1733 56.9849 23.8015C56.2638 24.5226 55.7004 25.3738 55.2965 26.3534V21.6708H49.7085V27.9622H43.6382V21.6708ZM60.0804 30.6758C60.0804 32.4849 60.4221 33.7914 61.0854 34.5954C61.7487 35.3793 62.6734 35.7814 63.8392 35.7814C65.0251 35.7814 65.9497 35.3994 66.6131 34.6155C67.2764 33.8316 67.598 32.4447 67.598 30.4346C67.598 28.7462 67.2563 27.4999 66.5729 26.7361C65.8894 25.9522 64.9648 25.5703 63.799 25.5703C62.7739 25.5301 61.7889 25.9723 61.1055 26.7562C60.4221 27.5401 60.0804 28.8467 60.0804 30.6758ZM85.407 34.5954C84.7437 33.7914 84.402 32.4849 84.402 30.6758C84.402 28.8467 84.7437 27.5401 85.4271 26.7562C86.0904 25.9723 87.0955 25.5301 88.1206 25.5703C89.2864 25.5703 90.2111 25.9522 90.8945 26.7361C91.5779 27.4999 91.9196 28.7462 91.9196 30.4346C91.9196 32.4447 91.598 33.8316 90.9347 34.6155C90.2714 35.3994 89.3467 35.7814 88.1608 35.7814C86.995 35.7814 86.0703 35.3793 85.407 34.5954ZM78.4991 4.32422C73.0293 8.4461 71.4462 15.3385 74.7312 19.6977C78.0162 24.0569 85.078 24.4347 90.5477 20.3128C96.0174 16.1909 97.6006 9.29848 94.3156 4.93929C91.0306 0.580095 83.9688 0.202345 78.4991 4.32422ZM78.8744 10.9975L80.8845 9.59046L83.3568 13.108C83.7789 13.6709 84.1005 14.2739 84.3417 14.9372C84.4824 15.4397 84.4422 15.9824 84.2412 16.4648C83.9799 17.0678 83.5578 17.5704 82.995 17.9322C82.3317 18.3945 81.7689 18.6558 81.2865 18.7362C80.8242 18.8166 80.3417 18.7362 79.8995 18.5352C79.4171 18.294 78.995 17.9523 78.6734 17.5101L80.402 15.902C80.5427 16.1231 80.7237 16.3241 80.9247 16.4849C81.0654 16.5854 81.2262 16.6457 81.4071 16.6457C81.5478 16.6457 81.6885 16.5854 81.789 16.505C81.99 16.3844 82.1307 16.1432 82.1106 15.902C82.0503 15.5603 81.9096 15.2186 81.6885 14.9573L78.8744 10.9975ZM84.9046 13.2287L86.7337 11.7814C86.9347 12.0226 87.196 12.2035 87.4774 12.304C87.8794 12.4246 88.3015 12.3442 88.6432 12.0829C88.8845 11.9221 89.0855 11.701 89.1659 11.4196C89.2865 11.0578 89.0855 10.6558 88.7236 10.5352C88.6633 10.5151 88.603 10.495 88.5427 10.495C88.3015 10.4749 87.8794 10.5754 87.2563 10.8367C86.2312 11.2588 85.4272 11.4196 84.8242 11.3593C84.2412 11.299 83.6985 10.9975 83.3769 10.495C83.1357 10.1533 83.0151 9.75126 82.995 9.34925C82.995 8.88694 83.1156 8.42463 83.3769 8.04272C83.7588 7.50001 84.2211 7.03769 84.784 6.67589C85.6282 6.09297 86.3719 5.81156 87.0151 5.81156C87.6583 5.81156 88.2613 6.11307 88.8242 6.73619L87.0151 8.16332C86.6533 7.70101 85.9699 7.60051 85.5076 7.96232L85.4473 8.02262C85.2463 8.14322 85.1056 8.32413 85.0252 8.54523C84.9649 8.70604 85.0051 8.88694 85.1056 9.02765C85.186 9.12815 85.3066 9.20855 85.4473 9.20855C85.6081 9.22865 85.8895 9.14825 86.2915 8.96734C87.2965 8.54523 88.0603 8.30403 88.5829 8.22363C89.0252 8.14322 89.4875 8.18342 89.9096 8.36433C90.2915 8.52513 90.6131 8.80654 90.8342 9.14825C91.1156 9.55026 91.2764 10.0327 91.2965 10.5352C91.3166 11.0578 91.1759 11.5603 90.8945 12.0025C90.5327 12.5452 90.0704 13.0075 89.5277 13.3694C88.4221 14.1332 87.5176 14.4548 86.794 14.3342C86.0101 14.2136 85.3669 13.8116 84.9046 13.2287Z" fill="black"/>
</svg>
